<svg xmlns="http://www.w3.org/2000/svg" xmlns:xlink="http://www.w3.org/1999/xlink" width="500" zoomAndPan="magnify" viewBox="0 0 375 374.999991" height="500" preserveAspectRatio="xMidYMid meet" version="1.0"><defs><clipPath id="a8a0f296de"><path d="M 4 138.460938 L 336 138.460938 L 336 236.710938 L 4 236.710938 Z M 4 138.460938 " clip-rule="nonzero"/></clipPath><clipPath id="2a62c3c5d6"><path d="M 345 138.460938 L 374 138.460938 L 374 168 L 345 168 Z M 345 138.460938 " clip-rule="nonzero"/></clipPath></defs><g clip-path="url(#a8a0f296de)"><path fill="#000000" d="M 4.332031 236.710938 L 4.332031 138.945312 L 30.78125 138.945312 C 37.878906 138.945312 43.035156 140.6875 46.25 144.167969 C 49.503906 147.609375 51.128906 153.3125 51.128906 161.277344 L 51.128906 165.554688 C 51.128906 170.144531 50.296875 173.867188 48.632812 176.71875 C 47.007812 179.570312 44.511719 181.441406 41.148438 182.328125 C 45.546875 183.441406 48.488281 186.050781 49.964844 190.160156 C 51.480469 194.234375 52.238281 199.214844 52.238281 205.105469 C 52.238281 211.4375 51.648438 216.972656 50.464844 221.714844 C 49.28125 226.453125 47.136719 230.136719 44.03125 232.769531 C 40.925781 235.398438 36.507812 236.710938 30.78125 236.710938 Z M 23.40625 175.773438 L 27.398438 175.773438 C 29.207031 175.773438 30.371094 175.070312 30.890625 173.664062 C 31.40625 172.257812 31.667969 170.570312 31.667969 168.609375 L 31.667969 158.777344 C 31.667969 155.628906 30.28125 154.054688 27.507812 154.054688 L 23.40625 154.054688 Z M 25.34375 219.492188 C 30.410156 219.492188 32.941406 217.085938 32.941406 212.269531 L 32.941406 200.050781 C 32.941406 197.273438 32.515625 195.085938 31.667969 193.496094 C 30.855469 191.863281 29.300781 191.050781 27.007812 191.050781 L 23.40625 191.050781 L 23.40625 219.378906 C 24.21875 219.453125 24.863281 219.492188 25.34375 219.492188 Z M 58.671875 236.710938 L 58.671875 138.945312 L 97.707031 138.945312 L 97.707031 157.832031 L 78.523438 157.832031 L 78.523438 176.886719 L 96.929688 176.886719 L 96.929688 195.273438 L 78.523438 195.273438 L 78.523438 217.660156 L 98.980469 217.660156 L 98.980469 236.710938 Z M 113.121094 236.710938 L 102.640625 138.945312 L 121.714844 138.945312 L 127.09375 200.660156 L 132.585938 138.945312 L 150.773438 138.945312 L 155.984375 200.660156 L 161.195312 138.945312 L 180.492188 138.945312 L 169.847656 236.710938 L 146.445312 236.710938 L 141.566406 189.660156 L 136.910156 236.710938 Z M 186.316406 236.710938 L 186.316406 138.945312 L 225.351562 138.945312 L 225.351562 157.832031 L 206.167969 157.832031 L 206.167969 176.886719 L 224.574219 176.886719 L 224.574219 195.273438 L 206.167969 195.273438 L 206.167969 217.660156 L 226.628906 217.660156 L 226.628906 236.710938 Z M 230.453125 236.710938 L 239.878906 138.945312 L 272.984375 138.945312 L 282.242188 236.710938 L 263.777344 236.710938 L 262.390625 220.9375 L 250.636719 220.9375 L 249.417969 236.710938 Z M 252.023438 205.328125 L 260.894531 205.328125 L 256.625 155.609375 L 255.738281 155.609375 Z M 288.230469 236.710938 L 288.230469 138.945312 L 318.175781 138.945312 C 323.164062 138.945312 326.9375 140.09375 329.484375 142.390625 C 332.035156 144.648438 333.738281 147.832031 334.589844 151.945312 C 335.472656 156.019531 335.917969 160.8125 335.917969 166.332031 C 335.917969 171.664062 335.234375 175.921875 333.867188 179.105469 C 332.535156 182.292969 330 184.496094 326.269531 185.71875 C 329.339844 186.347656 331.480469 187.882812 332.703125 190.328125 C 333.960938 192.734375 334.589844 195.863281 334.589844 199.714844 L 334.589844 236.710938 L 315.34375 236.710938 L 315.34375 198.4375 C 315.34375 195.585938 314.753906 193.828125 313.570312 193.160156 C 312.425781 192.457031 310.558594 192.105469 307.96875 192.105469 L 307.96875 236.710938 Z M 308.082031 175.164062 L 312.796875 175.164062 C 315.492188 175.164062 316.84375 172.21875 316.84375 166.332031 C 316.84375 162.515625 316.546875 160.015625 315.957031 158.832031 C 315.367188 157.648438 314.253906 157.054688 312.628906 157.054688 L 308.082031 157.054688 Z M 308.082031 175.164062 " fill-opacity="1" fill-rule="nonzero"/></g><g clip-path="url(#2a62c3c5d6)"><path fill="#000000" d="M 359.476562 138.460938 C 362.238281 138.460938 364.699219 139.074219 366.871094 140.296875 C 369.089844 141.519531 370.808594 143.242188 372.03125 145.464844 C 373.253906 147.640625 373.863281 150.132812 373.863281 152.945312 C 373.863281 155.710938 373.253906 158.179688 372.03125 160.355469 C 370.808594 162.53125 369.089844 164.253906 366.871094 165.523438 C 364.699219 166.746094 362.238281 167.359375 359.476562 167.359375 C 356.714844 167.359375 354.226562 166.746094 352.007812 165.523438 C 349.835938 164.253906 348.117188 162.53125 346.851562 160.355469 C 345.628906 158.179688 345.019531 155.710938 345.019531 152.945312 C 345.019531 150.132812 345.628906 147.640625 346.851562 145.464844 C 348.117188 143.242188 349.835938 141.519531 352.007812 140.296875 C 354.226562 139.074219 356.714844 138.460938 359.476562 138.460938 Z M 359.476562 163.890625 C 362.734375 163.890625 365.335938 162.894531 367.28125 160.898438 C 369.273438 158.859375 370.265625 156.207031 370.265625 152.945312 C 370.265625 149.636719 369.273438 146.984375 367.28125 144.988281 C 365.335938 142.949219 362.734375 141.929688 359.476562 141.929688 C 356.214844 141.929688 353.613281 142.949219 351.671875 144.988281 C 349.722656 146.984375 348.75 149.636719 348.75 152.945312 C 348.75 156.253906 349.722656 158.90625 351.671875 160.898438 C 353.613281 162.894531 356.214844 163.890625 359.476562 163.890625 Z M 365.855469 150.222656 C 365.855469 151.222656 365.605469 152.082031 365.109375 152.808594 C 364.65625 153.535156 364 154.078125 363.140625 154.441406 L 366.671875 160.015625 L 361.375 160.015625 L 358.457031 154.914062 L 358.050781 154.914062 L 358.050781 160.015625 L 353.503906 160.015625 L 353.503906 145.464844 L 360.628906 145.464844 C 362.214844 145.464844 363.480469 145.917969 364.429688 146.824219 C 365.378906 147.6875 365.855469 148.820312 365.855469 150.222656 Z M 357.980469 151.515625 L 360.152344 151.515625 C 360.472656 151.515625 360.742188 151.425781 360.96875 151.246094 C 361.195312 151.0625 361.308594 150.789062 361.308594 150.429688 C 361.308594 149.75 360.925781 149.410156 360.152344 149.410156 L 357.980469 149.410156 Z M 357.980469 151.515625 " fill-opacity="1" fill-rule="nonzero"/></g></svg>